<mxfile>
    <diagram id="2G_61YS-c6aNQ1wI_FUR" name="Page-1">
        <mxGraphModel dx="1193" dy="480" grid="1" gridSize="10" guides="1" tooltips="1" connect="1" arrows="1" fold="1" page="1" pageScale="1" pageWidth="827" pageHeight="1169" math="0" shadow="0">
            <root>
                <mxCell id="0"/>
                <mxCell id="1" parent="0"/>
                <UserObject label="%hostname%" hostname="kamino.tipsa.local" placeholders="1" id="3">
                    <mxCell style="shape=mxgraph.office.concepts.application_windows;fillColor=#F77F00;strokeColor=#003049;verticalLabelPosition=bottom;aspect=fixed;" vertex="1" parent="1">
                        <mxGeometry x="430" y="400" width="40" height="40" as="geometry"/>
                    </mxCell>
                </UserObject>
                <UserObject label="%hostname%" hostname="carida.tipsa.local" placeholders="1" id="4">
                    <mxCell style="shape=mxgraph.office.concepts.application_windows;fillColor=#F77F00;strokeColor=#003049;verticalLabelPosition=bottom;aspect=fixed;" vertex="1" parent="1">
                        <mxGeometry x="700" y="510" width="40" height="40" as="geometry"/>
                    </mxCell>
                </UserObject>
                <UserObject label="%hostname%" hostname="hoth.TIPSA.LOCAL" placeholders="1" id="5">
                    <mxCell style="shape=mxgraph.office.concepts.application_windows;fillColor=#F77F00;strokeColor=#003049;verticalLabelPosition=bottom;aspect=fixed;" vertex="1" parent="1">
                        <mxGeometry x="420" y="250" width="40" height="40" as="geometry"/>
                    </mxCell>
                </UserObject>
                <UserObject label="%hostname%" hostname="BROTHER5350DN.tipsa.local" placeholders="1" id="6">
                    <mxCell style="shape=mxgraph.office.devices.printer;fillColor=#F77F00;strokeColor=#003049;verticalLabelPosition=bottom;aspect=fixed;" vertex="1" parent="1">
                        <mxGeometry x="260" y="40" width="40" height="40" as="geometry"/>
                    </mxCell>
                </UserObject>
                <UserObject label="%hostname%" hostname="BRN30055C15780D.tipsa.local" placeholders="1" id="7">
                    <mxCell style="shape=mxgraph.office.devices.printer;fillColor=#F77F00;strokeColor=#003049;verticalLabelPosition=bottom;aspect=fixed;" vertex="1" parent="1">
                        <mxGeometry x="500" y="140" width="40" height="40" as="geometry"/>
                    </mxCell>
                </UserObject>
                <UserObject label="%hostname%" hostname="jc.tipsa.local" placeholders="1" id="8">
                    <mxCell style="shape=mxgraph.office.concepts.application_windows;fillColor=#F77F00;strokeColor=#003049;verticalLabelPosition=bottom;aspect=fixed;" vertex="1" parent="1">
                        <mxGeometry x="590" y="280" width="40" height="40" as="geometry"/>
                    </mxCell>
                </UserObject>
                <UserObject label="%hostname%" hostname="vortex.TIPSA.LOCAL" placeholders="1" id="9">
                    <mxCell style="shape=mxgraph.office.concepts.application_windows;fillColor=#F77F00;strokeColor=#003049;verticalLabelPosition=bottom;aspect=fixed;" vertex="1" parent="1">
                        <mxGeometry x="170" y="570" width="40" height="40" as="geometry"/>
                    </mxCell>
                </UserObject>
                <UserObject label="%hostname%" hostname="192.168.1.22" placeholders="1" id="10">
                    <mxCell style="shape=mxgraph.office.concepts.application_windows;fillColor=#F77F00;strokeColor=#003049;verticalLabelPosition=bottom;aspect=fixed;" vertex="1" parent="1">
                        <mxGeometry x="540" y="770" width="40" height="40" as="geometry"/>
                    </mxCell>
                </UserObject>
                <UserObject label="%hostname%" hostname="192.168.1.23" placeholders="1" id="11">
                    <mxCell style="shape=mxgraph.office.concepts.application_web;fillColor=#F77F00;strokeColor=#003049;verticalLabelPosition=bottom;aspect=fixed;" vertex="1" parent="1">
                        <mxGeometry x="570" y="430" width="40" height="40" as="geometry"/>
                    </mxCell>
                </UserObject>
                <UserObject label="%hostname%" hostname="hapes.TIPSA.LOCAL" placeholders="1" id="12">
                    <mxCell style="shape=mxgraph.office.concepts.application_windows;fillColor=#F77F00;strokeColor=#003049;verticalLabelPosition=bottom;aspect=fixed;" vertex="1" parent="1">
                        <mxGeometry x="310" y="460" width="40" height="40" as="geometry"/>
                    </mxCell>
                </UserObject>
                <UserObject label="%hostname%" hostname="tipsanav-2017.TIPSA.LOCAL" placeholders="1" id="13">
                    <mxCell style="shape=mxgraph.office.concepts.application_windows;fillColor=#F77F00;strokeColor=#003049;verticalLabelPosition=bottom;aspect=fixed;" vertex="1" parent="1">
                        <mxGeometry x="490" y="10" width="40" height="40" as="geometry"/>
                    </mxCell>
                </UserObject>
                <UserObject label="%hostname%" hostname="BC365.TIPSA.LOCAL" placeholders="1" id="14">
                    <mxCell style="shape=mxgraph.office.concepts.application_windows;fillColor=#F77F00;strokeColor=#003049;verticalLabelPosition=bottom;aspect=fixed;" vertex="1" parent="1">
                        <mxGeometry x="770" y="390" width="40" height="40" as="geometry"/>
                    </mxCell>
                </UserObject>
                <UserObject label="%hostname%" hostname="Myrkr.TIPSA.LOCAL" placeholders="1" id="15">
                    <mxCell style="shape=mxgraph.office.concepts.application_windows;fillColor=#F77F00;strokeColor=#003049;verticalLabelPosition=bottom;aspect=fixed;" vertex="1" parent="1">
                        <mxGeometry x="320" y="600" width="40" height="40" as="geometry"/>
                    </mxCell>
                </UserObject>
                <UserObject label="%hostname%" hostname="hapes.TIPSA.LOCAL" placeholders="1" id="16">
                    <mxCell style="shape=mxgraph.office.concepts.application_windows;fillColor=#F77F00;strokeColor=#003049;verticalLabelPosition=bottom;aspect=fixed;" vertex="1" parent="1">
                        <mxGeometry x="320" y="460" width="40" height="40" as="geometry"/>
                    </mxCell>
                </UserObject>
                <UserObject label="%hostname%" hostname="BC160.TIPSA.LOCAL" placeholders="1" id="17">
                    <mxCell style="shape=mxgraph.office.concepts.application_windows;fillColor=#F77F00;strokeColor=#003049;verticalLabelPosition=bottom;aspect=fixed;" vertex="1" parent="1">
                        <mxGeometry x="570" y="450" width="40" height="40" as="geometry"/>
                    </mxCell>
                </UserObject>
                <UserObject label="%hostname%" hostname="gitserver.TIPSA.LOCAL" placeholders="1" id="18">
                    <mxCell style="shape=mxgraph.office.concepts.application_windows;fillColor=#F77F00;strokeColor=#003049;verticalLabelPosition=bottom;aspect=fixed;" vertex="1" parent="1">
                        <mxGeometry x="300" y="600" width="40" height="40" as="geometry"/>
                    </mxCell>
                </UserObject>
                <UserObject label="%hostname%" hostname="vnt170mt.TIPSA.LOCAL" placeholders="1" id="19">
                    <mxCell style="shape=mxgraph.office.concepts.application_windows;fillColor=#F77F00;strokeColor=#003049;verticalLabelPosition=bottom;aspect=fixed;" vertex="1" parent="1">
                        <mxGeometry x="180" y="400" width="40" height="40" as="geometry"/>
                    </mxCell>
                </UserObject>
                <UserObject label="%hostname%" hostname="kessel.TIPSA.LOCAL" placeholders="1" id="20">
                    <mxCell style="shape=mxgraph.office.concepts.application_windows;fillColor=#F77F00;strokeColor=#003049;verticalLabelPosition=bottom;aspect=fixed;" vertex="1" parent="1">
                        <mxGeometry x="450" y="660" width="40" height="40" as="geometry"/>
                    </mxCell>
                </UserObject>
                <UserObject label="%hostname%" hostname="CRM2015" placeholders="1" id="21">
                    <mxCell style="shape=mxgraph.office.concepts.application_windows;fillColor=#F77F00;strokeColor=#003049;verticalLabelPosition=bottom;aspect=fixed;" vertex="1" parent="1">
                        <mxGeometry x="390" y="180" width="40" height="40" as="geometry"/>
                    </mxCell>
                </UserObject>
                <UserObject label="%hostname%" hostname="NAV2015.TIPSA.LOCAL" placeholders="1" id="22">
                    <mxCell style="shape=mxgraph.office.concepts.application_windows;fillColor=#F77F00;strokeColor=#003049;verticalLabelPosition=bottom;aspect=fixed;" vertex="1" parent="1">
                        <mxGeometry x="540" y="300" width="40" height="40" as="geometry"/>
                    </mxCell>
                </UserObject>
                <UserObject label="%hostname%" hostname="bespin.TIPSA.LOCAL" placeholders="1" id="23">
                    <mxCell style="shape=mxgraph.office.concepts.application_windows;fillColor=#F77F00;strokeColor=#003049;verticalLabelPosition=bottom;aspect=fixed;" vertex="1" parent="1">
                        <mxGeometry x="90" y="250" width="40" height="40" as="geometry"/>
                    </mxCell>
                </UserObject>
                <UserObject label="%hostname%" hostname="WSUS.TIPSA.LOCAL" placeholders="1" id="24">
                    <mxCell style="shape=mxgraph.office.concepts.application_windows;fillColor=#F77F00;strokeColor=#003049;verticalLabelPosition=bottom;aspect=fixed;" vertex="1" parent="1">
                        <mxGeometry x="200" y="250" width="40" height="40" as="geometry"/>
                    </mxCell>
                </UserObject>
                <UserObject label="%hostname%" hostname="Obroa.TIPSA.LOCAL" placeholders="1" id="25">
                    <mxCell style="shape=mxgraph.office.concepts.application_windows;fillColor=#F77F00;strokeColor=#003049;verticalLabelPosition=bottom;aspect=fixed;" vertex="1" parent="1">
                        <mxGeometry x="750" y="240" width="40" height="40" as="geometry"/>
                    </mxCell>
                </UserObject>
                <UserObject label="%hostname%" hostname="selonia.tipsa.local" placeholders="1" id="26">
                    <mxCell style="shape=mxgraph.office.concepts.application_windows;fillColor=#F77F00;strokeColor=#003049;verticalLabelPosition=bottom;aspect=fixed;" vertex="1" parent="1">
                        <mxGeometry x="150" y="120" width="40" height="40" as="geometry"/>
                    </mxCell>
                </UserObject>
                <UserObject label="%hostname%" hostname="Alderaan.TIPSA.LOCAL" placeholders="1" id="27">
                    <mxCell style="shape=mxgraph.office.concepts.application_windows;fillColor=#F77F00;strokeColor=#003049;verticalLabelPosition=bottom;aspect=fixed;" vertex="1" parent="1">
                        <mxGeometry x="220" y="700" width="40" height="40" as="geometry"/>
                    </mxCell>
                </UserObject>
                <UserObject label="%hostname%" hostname="SQL-SHAREPOINT.TIPSA.LOCAL" placeholders="1" id="28">
                    <mxCell style="shape=mxgraph.office.concepts.application_windows;fillColor=#F77F00;strokeColor=#003049;verticalLabelPosition=bottom;aspect=fixed;" vertex="1" parent="1">
                        <mxGeometry x="530" y="160" width="40" height="40" as="geometry"/>
                    </mxCell>
                </UserObject>
                <UserObject label="%hostname%" hostname="192.168.1.48" placeholders="1" id="29">
                    <mxCell style="shape=mxgraph.office.concepts.application_windows;fillColor=#F77F00;strokeColor=#003049;verticalLabelPosition=bottom;aspect=fixed;" vertex="1" parent="1">
                        <mxGeometry x="290" y="320" width="40" height="40" as="geometry"/>
                    </mxCell>
                </UserObject>
                <UserObject label="%hostname%" hostname="NAV2017.TIPSA.LOCAL" placeholders="1" id="30">
                    <mxCell style="shape=mxgraph.office.concepts.application_windows;fillColor=#F77F00;strokeColor=#003049;verticalLabelPosition=bottom;aspect=fixed;" vertex="1" parent="1">
                        <mxGeometry x="150" y="390" width="40" height="40" as="geometry"/>
                    </mxCell>
                </UserObject>
                <UserObject label="%hostname%" hostname="192.168.1.50" placeholders="1" id="31">
                    <mxCell style="shape=mxgraph.office.concepts.application_windows;fillColor=#F77F00;strokeColor=#003049;verticalLabelPosition=bottom;aspect=fixed;" vertex="1" parent="1">
                        <mxGeometry x="260" y="730" width="40" height="40" as="geometry"/>
                    </mxCell>
                </UserObject>
                <UserObject label="%hostname%" hostname="192.168.1.100" placeholders="1" id="32">
                    <mxCell style="shape=mxgraph.office.concepts.application_web;fillColor=#F77F00;strokeColor=#003049;verticalLabelPosition=bottom;aspect=fixed;" vertex="1" parent="1">
                        <mxGeometry x="670" y="130" width="40" height="40" as="geometry"/>
                    </mxCell>
                </UserObject>
                <UserObject label="%hostname%" hostname="192.168.1.101" placeholders="1" id="33">
                    <mxCell style="shape=mxgraph.office.concepts.help;fillColor=#F77F00;strokeColor=#003049;verticalLabelPosition=bottom;aspect=fixed;" vertex="1" parent="1">
                        <mxGeometry x="310" y="320" width="40" height="40" as="geometry"/>
                    </mxCell>
                </UserObject>
                <UserObject label="%hostname%" hostname="ganimedes.tipsa.local" placeholders="1" id="34">
                    <mxCell style="shape=mxgraph.office.concepts.application_web;fillColor=#F77F00;strokeColor=#003049;verticalLabelPosition=bottom;aspect=fixed;" vertex="1" parent="1">
                        <mxGeometry x="390" y="720" width="40" height="40" as="geometry"/>
                    </mxCell>
                </UserObject>
                <UserObject label="%hostname%" hostname="192.168.1.104" placeholders="1" id="35">
                    <mxCell style="shape=mxgraph.office.concepts.help;fillColor=#F77F00;strokeColor=#003049;verticalLabelPosition=bottom;aspect=fixed;" vertex="1" parent="1">
                        <mxGeometry x="450" y="380" width="40" height="40" as="geometry"/>
                    </mxCell>
                </UserObject>
                <UserObject label="%hostname%" hostname="192.168.1.105" placeholders="1" id="36">
                    <mxCell style="shape=mxgraph.office.concepts.application_web;fillColor=#F77F00;strokeColor=#003049;verticalLabelPosition=bottom;aspect=fixed;" vertex="1" parent="1">
                        <mxGeometry x="400" y="60" width="40" height="40" as="geometry"/>
                    </mxCell>
                </UserObject>
                <UserObject label="%hostname%" hostname="192.168.1.106" placeholders="1" id="37">
                    <mxCell style="shape=mxgraph.office.concepts.application_web;fillColor=#F77F00;strokeColor=#003049;verticalLabelPosition=bottom;aspect=fixed;" vertex="1" parent="1">
                        <mxGeometry x="180" y="530" width="40" height="40" as="geometry"/>
                    </mxCell>
                </UserObject>
                <UserObject label="%hostname%" hostname="192.168.1.110" placeholders="1" id="38">
                    <mxCell style="shape=mxgraph.office.concepts.help;fillColor=#F77F00;strokeColor=#003049;verticalLabelPosition=bottom;aspect=fixed;" vertex="1" parent="1">
                        <mxGeometry x="450" y="520" width="40" height="40" as="geometry"/>
                    </mxCell>
                </UserObject>
                <UserObject label="%hostname%" hostname="192.168.1.111" placeholders="1" id="39">
                    <mxCell style="shape=mxgraph.office.concepts.help;fillColor=#F77F00;strokeColor=#003049;verticalLabelPosition=bottom;aspect=fixed;" vertex="1" parent="1">
                        <mxGeometry x="310" y="460" width="40" height="40" as="geometry"/>
                    </mxCell>
                </UserObject>
                <UserObject label="%hostname%" hostname="winxpe" placeholders="1" id="40">
                    <mxCell style="shape=mxgraph.office.concepts.help;fillColor=#F77F00;strokeColor=#003049;verticalLabelPosition=bottom;aspect=fixed;" vertex="1" parent="1">
                        <mxGeometry x="640" y="240" width="40" height="40" as="geometry"/>
                    </mxCell>
                </UserObject>
                <UserObject label="%hostname%" hostname="192.168.1.113" placeholders="1" id="41">
                    <mxCell style="shape=mxgraph.office.concepts.help;fillColor=#F77F00;strokeColor=#003049;verticalLabelPosition=bottom;aspect=fixed;" vertex="1" parent="1">
                        <mxGeometry x="420" y="240" width="40" height="40" as="geometry"/>
                    </mxCell>
                </UserObject>
                <UserObject label="%hostname%" hostname="192.168.1.114" placeholders="1" id="42">
                    <mxCell style="shape=mxgraph.office.concepts.help;fillColor=#F77F00;strokeColor=#003049;verticalLabelPosition=bottom;aspect=fixed;" vertex="1" parent="1">
                        <mxGeometry x="660" y="700" width="40" height="40" as="geometry"/>
                    </mxCell>
                </UserObject>
                <UserObject label="%hostname%" hostname="192.168.1.115" placeholders="1" id="43">
                    <mxCell style="shape=mxgraph.office.concepts.help;fillColor=#F77F00;strokeColor=#003049;verticalLabelPosition=bottom;aspect=fixed;" vertex="1" parent="1">
                        <mxGeometry x="560" y="600" width="40" height="40" as="geometry"/>
                    </mxCell>
                </UserObject>
                <UserObject label="%hostname%" hostname="host.docker.internal" placeholders="1" id="44">
                    <mxCell style="shape=mxgraph.office.concepts.application_windows;fillColor=#F77F00;strokeColor=#003049;verticalLabelPosition=bottom;aspect=fixed;" vertex="1" parent="1">
                        <mxGeometry x="320" y="310" width="40" height="40" as="geometry"/>
                    </mxCell>
                </UserObject>
                <UserObject label="%hostname%" hostname="cg.TIPSA.LOCAL" placeholders="1" id="45">
                    <mxCell style="shape=mxgraph.office.concepts.application_windows;fillColor=#F77F00;strokeColor=#003049;verticalLabelPosition=bottom;aspect=fixed;" vertex="1" parent="1">
                        <mxGeometry x="580" y="580" width="40" height="40" as="geometry"/>
                    </mxCell>
                </UserObject>
                <UserObject label="%hostname%" hostname="pv.TIPSA.LOCAL" placeholders="1" id="46">
                    <mxCell style="shape=mxgraph.office.concepts.application_windows;fillColor=#F77F00;strokeColor=#003049;verticalLabelPosition=bottom;aspect=fixed;" vertex="1" parent="1">
                        <mxGeometry x="680" y="360" width="40" height="40" as="geometry"/>
                    </mxCell>
                </UserObject>
                <UserObject label="%hostname%" hostname="maf.TIPSA.LOCAL" placeholders="1" id="47">
                    <mxCell style="shape=mxgraph.office.concepts.application_windows;fillColor=#F77F00;strokeColor=#003049;verticalLabelPosition=bottom;aspect=fixed;" vertex="1" parent="1">
                        <mxGeometry x="430" y="520" width="40" height="40" as="geometry"/>
                    </mxCell>
                </UserObject>
                <UserObject label="%hostname%" hostname="eo3.TIPSA.LOCAL" placeholders="1" id="48">
                    <mxCell style="shape=mxgraph.office.concepts.application_windows;fillColor=#F77F00;strokeColor=#003049;verticalLabelPosition=bottom;aspect=fixed;" vertex="1" parent="1">
                        <mxGeometry x="430" y="390" width="40" height="40" as="geometry"/>
                    </mxCell>
                </UserObject>
                <UserObject label="%hostname%" hostname="MS-surface.TIPSA.LOCAL" placeholders="1" id="49">
                    <mxCell style="shape=mxgraph.office.concepts.application_windows;fillColor=#F77F00;strokeColor=#003049;verticalLabelPosition=bottom;aspect=fixed;" vertex="1" parent="1">
                        <mxGeometry x="380" y="790" width="40" height="40" as="geometry"/>
                    </mxCell>
                </UserObject>
                <UserObject label="%hostname%" hostname="am.TIPSA.LOCAL" placeholders="1" id="50">
                    <mxCell style="shape=mxgraph.office.concepts.application_windows;fillColor=#F77F00;strokeColor=#003049;verticalLabelPosition=bottom;aspect=fixed;" vertex="1" parent="1">
                        <mxGeometry x="310" y="170" width="40" height="40" as="geometry"/>
                    </mxCell>
                </UserObject>
                <UserObject label="%hostname%" hostname="jat.TIPSA.LOCAL" placeholders="1" id="51">
                    <mxCell style="shape=mxgraph.office.concepts.application_windows;fillColor=#F77F00;strokeColor=#003049;verticalLabelPosition=bottom;aspect=fixed;" vertex="1" parent="1">
                        <mxGeometry x="550" y="290" width="40" height="40" as="geometry"/>
                    </mxCell>
                </UserObject>
                <UserObject label="%hostname%" hostname="ja.TIPSA.LOCAL" placeholders="1" id="52">
                    <mxCell style="shape=mxgraph.office.concepts.application_windows;fillColor=#F77F00;strokeColor=#003049;verticalLabelPosition=bottom;aspect=fixed;" vertex="1" parent="1">
                        <mxGeometry x="190" y="540" width="40" height="40" as="geometry"/>
                    </mxCell>
                </UserObject>
                <UserObject label="%hostname%" hostname="jch-surface.TIPSA.LOCAL" placeholders="1" id="53">
                    <mxCell style="shape=mxgraph.office.concepts.application_windows;fillColor=#F77F00;strokeColor=#003049;verticalLabelPosition=bottom;aspect=fixed;" vertex="1" parent="1">
                        <mxGeometry x="670" y="550" width="40" height="40" as="geometry"/>
                    </mxCell>
                </UserObject>
                <UserObject label="%hostname%" hostname="gg.TIPSA.LOCAL" placeholders="1" id="54">
                    <mxCell style="shape=mxgraph.office.concepts.application_windows;fillColor=#F77F00;strokeColor=#003049;verticalLabelPosition=bottom;aspect=fixed;" vertex="1" parent="1">
                        <mxGeometry x="190" y="390" width="40" height="40" as="geometry"/>
                    </mxCell>
                </UserObject>
                <UserObject label="%hostname%" hostname="sc2.TIPSA.LOCAL" placeholders="1" id="55">
                    <mxCell style="shape=mxgraph.office.concepts.application_windows;fillColor=#F77F00;strokeColor=#003049;verticalLabelPosition=bottom;aspect=fixed;" vertex="1" parent="1">
                        <mxGeometry x="280" y="130" width="40" height="40" as="geometry"/>
                    </mxCell>
                </UserObject>
                <UserObject label="%hostname%" hostname="asm.TIPSA.LOCAL" placeholders="1" id="56">
                    <mxCell style="shape=mxgraph.office.concepts.application_windows;fillColor=#F77F00;strokeColor=#003049;verticalLabelPosition=bottom;aspect=fixed;" vertex="1" parent="1">
                        <mxGeometry x="140" y="260" width="40" height="40" as="geometry"/>
                    </mxCell>
                </UserObject>
                <UserObject label="%hostname%" hostname="hoth.TIPSA.LOCAL" placeholders="1" id="57">
                    <mxCell style="shape=mxgraph.office.concepts.application_windows;fillColor=#F77F00;strokeColor=#003049;verticalLabelPosition=bottom;aspect=fixed;" vertex="1" parent="1">
                        <mxGeometry x="560" y="460" width="40" height="40" as="geometry"/>
                    </mxCell>
                </UserObject>
                <UserObject label="%hostname%" hostname="ip.TIPSA.LOCAL" placeholders="1" id="58">
                    <mxCell style="shape=mxgraph.office.concepts.application_windows;fillColor=#F77F00;strokeColor=#003049;verticalLabelPosition=bottom;aspect=fixed;" vertex="1" parent="1">
                        <mxGeometry x="330" y="600" width="40" height="40" as="geometry"/>
                    </mxCell>
                </UserObject>
                <UserObject label="%hostname%" hostname="LAPTOP-NA69COM6.TIPSA.LOCAL" placeholders="1" id="59">
                    <mxCell style="shape=mxgraph.office.concepts.application_windows;fillColor=#F77F00;strokeColor=#003049;verticalLabelPosition=bottom;aspect=fixed;" vertex="1" parent="1">
                        <mxGeometry x="670" y="350" width="40" height="40" as="geometry"/>
                    </mxCell>
                </UserObject>
                <UserObject label="%hostname%" hostname="ds2.TIPSA.LOCAL" placeholders="1" id="60">
                    <mxCell style="shape=mxgraph.office.concepts.application_windows;fillColor=#F77F00;strokeColor=#003049;verticalLabelPosition=bottom;aspect=fixed;" vertex="1" parent="1">
                        <mxGeometry x="810" y="390" width="40" height="40" as="geometry"/>
                    </mxCell>
                </UserObject>
                <UserObject label="%hostname%" hostname="192.168.1.180" placeholders="1" id="61">
                    <mxCell style="shape=mxgraph.office.concepts.help;fillColor=#F77F00;strokeColor=#003049;verticalLabelPosition=bottom;aspect=fixed;" vertex="1" parent="1">
                        <mxGeometry x="700" y="650" width="40" height="40" as="geometry"/>
                    </mxCell>
                </UserObject>
                <UserObject label="%hostname%" hostname="ts.TIPSA.LOCAL" placeholders="1" id="62">
                    <mxCell style="shape=mxgraph.office.concepts.application_windows;fillColor=#F77F00;strokeColor=#003049;verticalLabelPosition=bottom;aspect=fixed;" vertex="1" parent="1">
                        <mxGeometry x="650" y="140" width="40" height="40" as="geometry"/>
                    </mxCell>
                </UserObject>
                <UserObject label="%hostname%" hostname="eb.TIPSA.LOCAL" placeholders="1" id="63">
                    <mxCell style="shape=mxgraph.office.concepts.application_windows;fillColor=#F77F00;strokeColor=#003049;verticalLabelPosition=bottom;aspect=fixed;" vertex="1" parent="1">
                        <mxGeometry x="550" y="620" width="40" height="40" as="geometry"/>
                    </mxCell>
                </UserObject>
                <UserObject label="%hostname%" hostname="fg.TIPSA.LOCAL" placeholders="1" id="64">
                    <mxCell style="shape=mxgraph.office.concepts.application_windows;fillColor=#F77F00;strokeColor=#003049;verticalLabelPosition=bottom;aspect=fixed;" vertex="1" parent="1">
                        <mxGeometry x="820" y="560" width="40" height="40" as="geometry"/>
                    </mxCell>
                </UserObject>
                <UserObject label="%hostname%" hostname="jg.TIPSA.LOCAL" placeholders="1" id="65">
                    <mxCell style="shape=mxgraph.office.concepts.application_windows;fillColor=#F77F00;strokeColor=#003049;verticalLabelPosition=bottom;aspect=fixed;" vertex="1" parent="1">
                        <mxGeometry x="440" y="530" width="40" height="40" as="geometry"/>
                    </mxCell>
                </UserObject>
                <UserObject label="%hostname%" hostname="192.168.1.199" placeholders="1" id="66">
                    <mxCell style="shape=mxgraph.office.concepts.application_web;fillColor=#F77F00;strokeColor=#003049;verticalLabelPosition=bottom;aspect=fixed;" vertex="1" parent="1">
                        <mxGeometry x="420" y="670" width="40" height="40" as="geometry"/>
                    </mxCell>
                </UserObject>
                <UserObject label="%hostname%" hostname="192.168.1.202" placeholders="1" id="67">
                    <mxCell style="shape=mxgraph.office.concepts.application_web;fillColor=#F77F00;strokeColor=#003049;verticalLabelPosition=bottom;aspect=fixed;" vertex="1" parent="1">
                        <mxGeometry x="750" y="10" width="40" height="40" as="geometry"/>
                    </mxCell>
                </UserObject>
                <UserObject label="%hostname%" hostname="ar.TIPSA.LOCAL" placeholders="1" id="68">
                    <mxCell style="shape=mxgraph.office.concepts.application_windows;fillColor=#F77F00;strokeColor=#003049;verticalLabelPosition=bottom;aspect=fixed;" vertex="1" parent="1">
                        <mxGeometry x="770" y="250" width="40" height="40" as="geometry"/>
                    </mxCell>
                </UserObject>
                <UserObject label="%hostname%" hostname="VAIO.TIPSA.LOCAL" placeholders="1" id="69">
                    <mxCell style="shape=mxgraph.office.concepts.application_windows;fillColor=#F77F00;strokeColor=#003049;verticalLabelPosition=bottom;aspect=fixed;" vertex="1" parent="1">
                        <mxGeometry x="710" y="480" width="40" height="40" as="geometry"/>
                    </mxCell>
                </UserObject>
                <UserObject label="%hostname%" hostname="ECL.TIPSA.LOCAL" placeholders="1" id="70">
                    <mxCell style="shape=mxgraph.office.concepts.application_windows;fillColor=#F77F00;strokeColor=#003049;verticalLabelPosition=bottom;aspect=fixed;" vertex="1" parent="1">
                        <mxGeometry x="260" y="190" width="40" height="40" as="geometry"/>
                    </mxCell>
                </UserObject>
                <UserObject label="%hostname%" hostname="192.168.1.246" placeholders="1" id="71">
                    <mxCell style="shape=mxgraph.office.concepts.application_web;fillColor=#F77F00;strokeColor=#003049;verticalLabelPosition=bottom;aspect=fixed;" vertex="1" parent="1">
                        <mxGeometry x="90" y="630" width="40" height="40" as="geometry"/>
                    </mxCell>
                </UserObject>
                <UserObject label="%hostname%" hostname="kamino.tipsa.local" placeholders="1" id="72">
                    <mxCell style="shape=mxgraph.office.concepts.application_windows;fillColor=#F77F00;strokeColor=#003049;verticalLabelPosition=bottom;aspect=fixed;" vertex="1" parent="1">
                        <mxGeometry x="50" y="500" width="40" height="40" as="geometry"/>
                    </mxCell>
                </UserObject>
                <UserObject label="%hostname%" hostname="192.168.1.251" placeholders="1" id="73">
                    <mxCell style="shape=mxgraph.office.concepts.application_windows;fillColor=#F77F00;strokeColor=#003049;verticalLabelPosition=bottom;aspect=fixed;" vertex="1" parent="1">
                        <mxGeometry x="540" y="740" width="40" height="40" as="geometry"/>
                    </mxCell>
                </UserObject>
                <UserObject label="%hostname%" hostname="192.168.1.252" placeholders="1" id="74">
                    <mxCell style="shape=mxgraph.office.concepts.application_windows;fillColor=#F77F00;strokeColor=#003049;verticalLabelPosition=bottom;aspect=fixed;" vertex="1" parent="1">
                        <mxGeometry x="510" y="160" width="40" height="40" as="geometry"/>
                    </mxCell>
                </UserObject>
                <UserObject label="%hostname%" hostname="ism.tipsa.local" placeholders="1" id="75">
                    <mxCell style="shape=mxgraph.office.concepts.application_windows;fillColor=#F77F00;strokeColor=#003049;verticalLabelPosition=bottom;aspect=fixed;" vertex="1" parent="1">
                        <mxGeometry x="50" y="380" width="40" height="40" as="geometry"/>
                    </mxCell>
                </UserObject>
                <mxCell id="76" value="" style="curved=0;endArrow=none;endFill=0;dashed=1;strokeColor=#6c8ebf;" edge="1" parent="1" source="3" target="4">
                    <mxGeometry relative="1" as="geometry"/>
                </mxCell>
                <mxCell id="77" value="" style="curved=0;endArrow=none;endFill=0;dashed=1;strokeColor=#6c8ebf;" edge="1" parent="1" source="3" target="5">
                    <mxGeometry relative="1" as="geometry"/>
                </mxCell>
                <mxCell id="78" value="" style="curved=0;endArrow=none;endFill=0;dashed=1;strokeColor=#6c8ebf;" edge="1" parent="1" source="3" target="6">
                    <mxGeometry relative="1" as="geometry"/>
                </mxCell>
                <mxCell id="79" value="" style="curved=0;endArrow=none;endFill=0;dashed=1;strokeColor=#6c8ebf;" edge="1" parent="1" source="3" target="7">
                    <mxGeometry relative="1" as="geometry"/>
                </mxCell>
                <mxCell id="80" value="" style="curved=0;endArrow=none;endFill=0;dashed=1;strokeColor=#6c8ebf;" edge="1" parent="1" source="3" target="8">
                    <mxGeometry relative="1" as="geometry"/>
                </mxCell>
                <mxCell id="81" value="" style="curved=0;endArrow=none;endFill=0;dashed=1;strokeColor=#6c8ebf;" edge="1" parent="1" source="3" target="9">
                    <mxGeometry relative="1" as="geometry"/>
                </mxCell>
                <mxCell id="82" value="" style="curved=0;endArrow=none;endFill=0;dashed=1;strokeColor=#6c8ebf;" edge="1" parent="1" source="3" target="10">
                    <mxGeometry relative="1" as="geometry"/>
                </mxCell>
                <mxCell id="83" value="" style="curved=0;endArrow=none;endFill=0;dashed=1;strokeColor=#6c8ebf;" edge="1" parent="1" source="3" target="11">
                    <mxGeometry relative="1" as="geometry"/>
                </mxCell>
                <mxCell id="84" value="" style="curved=0;endArrow=none;endFill=0;dashed=1;strokeColor=#6c8ebf;" edge="1" parent="1" source="3" target="12">
                    <mxGeometry relative="1" as="geometry"/>
                </mxCell>
                <mxCell id="85" value="" style="curved=0;endArrow=none;endFill=0;dashed=1;strokeColor=#6c8ebf;" edge="1" parent="1" source="3" target="13">
                    <mxGeometry relative="1" as="geometry"/>
                </mxCell>
                <mxCell id="86" value="" style="curved=0;endArrow=none;endFill=0;dashed=1;strokeColor=#6c8ebf;" edge="1" parent="1" source="3" target="14">
                    <mxGeometry relative="1" as="geometry"/>
                </mxCell>
                <mxCell id="87" value="" style="curved=0;endArrow=none;endFill=0;dashed=1;strokeColor=#6c8ebf;" edge="1" parent="1" source="3" target="15">
                    <mxGeometry relative="1" as="geometry"/>
                </mxCell>
                <mxCell id="88" value="" style="curved=0;endArrow=none;endFill=0;dashed=1;strokeColor=#6c8ebf;" edge="1" parent="1" source="3" target="16">
                    <mxGeometry relative="1" as="geometry"/>
                </mxCell>
                <mxCell id="89" value="" style="curved=0;endArrow=none;endFill=0;dashed=1;strokeColor=#6c8ebf;" edge="1" parent="1" source="3" target="17">
                    <mxGeometry relative="1" as="geometry"/>
                </mxCell>
                <mxCell id="90" value="" style="curved=0;endArrow=none;endFill=0;dashed=1;strokeColor=#6c8ebf;" edge="1" parent="1" source="3" target="18">
                    <mxGeometry relative="1" as="geometry"/>
                </mxCell>
                <mxCell id="91" value="" style="curved=0;endArrow=none;endFill=0;dashed=1;strokeColor=#6c8ebf;" edge="1" parent="1" source="3" target="19">
                    <mxGeometry relative="1" as="geometry"/>
                </mxCell>
                <mxCell id="92" value="" style="curved=0;endArrow=none;endFill=0;dashed=1;strokeColor=#6c8ebf;" edge="1" parent="1" source="3" target="20">
                    <mxGeometry relative="1" as="geometry"/>
                </mxCell>
                <mxCell id="93" value="" style="curved=0;endArrow=none;endFill=0;dashed=1;strokeColor=#6c8ebf;" edge="1" parent="1" source="3" target="21">
                    <mxGeometry relative="1" as="geometry"/>
                </mxCell>
                <mxCell id="94" value="" style="curved=0;endArrow=none;endFill=0;dashed=1;strokeColor=#6c8ebf;" edge="1" parent="1" source="3" target="22">
                    <mxGeometry relative="1" as="geometry"/>
                </mxCell>
                <mxCell id="95" value="" style="curved=0;endArrow=none;endFill=0;dashed=1;strokeColor=#6c8ebf;" edge="1" parent="1" source="3" target="23">
                    <mxGeometry relative="1" as="geometry"/>
                </mxCell>
                <mxCell id="96" value="" style="curved=0;endArrow=none;endFill=0;dashed=1;strokeColor=#6c8ebf;" edge="1" parent="1" source="3" target="24">
                    <mxGeometry relative="1" as="geometry"/>
                </mxCell>
                <mxCell id="97" value="" style="curved=0;endArrow=none;endFill=0;dashed=1;strokeColor=#6c8ebf;" edge="1" parent="1" source="3" target="25">
                    <mxGeometry relative="1" as="geometry"/>
                </mxCell>
                <mxCell id="98" value="" style="curved=0;endArrow=none;endFill=0;dashed=1;strokeColor=#6c8ebf;" edge="1" parent="1" source="3" target="26">
                    <mxGeometry relative="1" as="geometry"/>
                </mxCell>
                <mxCell id="99" value="" style="curved=0;endArrow=none;endFill=0;dashed=1;strokeColor=#6c8ebf;" edge="1" parent="1" source="3" target="27">
                    <mxGeometry relative="1" as="geometry"/>
                </mxCell>
                <mxCell id="100" value="" style="curved=0;endArrow=none;endFill=0;dashed=1;strokeColor=#6c8ebf;" edge="1" parent="1" source="3" target="28">
                    <mxGeometry relative="1" as="geometry"/>
                </mxCell>
                <mxCell id="101" value="" style="curved=0;endArrow=none;endFill=0;dashed=1;strokeColor=#6c8ebf;" edge="1" parent="1" source="3" target="29">
                    <mxGeometry relative="1" as="geometry"/>
                </mxCell>
                <mxCell id="102" value="" style="curved=0;endArrow=none;endFill=0;dashed=1;strokeColor=#6c8ebf;" edge="1" parent="1" source="3" target="30">
                    <mxGeometry relative="1" as="geometry"/>
                </mxCell>
                <mxCell id="103" value="" style="curved=0;endArrow=none;endFill=0;dashed=1;strokeColor=#6c8ebf;" edge="1" parent="1" source="3" target="31">
                    <mxGeometry relative="1" as="geometry"/>
                </mxCell>
                <mxCell id="104" value="" style="curved=0;endArrow=none;endFill=0;dashed=1;strokeColor=#6c8ebf;" edge="1" parent="1" source="3" target="32">
                    <mxGeometry relative="1" as="geometry"/>
                </mxCell>
                <mxCell id="105" value="" style="curved=0;endArrow=none;endFill=0;dashed=1;strokeColor=#6c8ebf;" edge="1" parent="1" source="3" target="33">
                    <mxGeometry relative="1" as="geometry"/>
                </mxCell>
                <mxCell id="106" value="" style="curved=0;endArrow=none;endFill=0;dashed=1;strokeColor=#6c8ebf;" edge="1" parent="1" source="3" target="34">
                    <mxGeometry relative="1" as="geometry"/>
                </mxCell>
                <mxCell id="107" value="" style="curved=0;endArrow=none;endFill=0;dashed=1;strokeColor=#6c8ebf;" edge="1" parent="1" source="3" target="35">
                    <mxGeometry relative="1" as="geometry"/>
                </mxCell>
                <mxCell id="108" value="" style="curved=0;endArrow=none;endFill=0;dashed=1;strokeColor=#6c8ebf;" edge="1" parent="1" source="3" target="36">
                    <mxGeometry relative="1" as="geometry"/>
                </mxCell>
                <mxCell id="109" value="" style="curved=0;endArrow=none;endFill=0;dashed=1;strokeColor=#6c8ebf;" edge="1" parent="1" source="3" target="37">
                    <mxGeometry relative="1" as="geometry"/>
                </mxCell>
                <mxCell id="110" value="" style="curved=0;endArrow=none;endFill=0;dashed=1;strokeColor=#6c8ebf;" edge="1" parent="1" source="3" target="38">
                    <mxGeometry relative="1" as="geometry"/>
                </mxCell>
                <mxCell id="111" value="" style="curved=0;endArrow=none;endFill=0;dashed=1;strokeColor=#6c8ebf;" edge="1" parent="1" source="3" target="39">
                    <mxGeometry relative="1" as="geometry"/>
                </mxCell>
                <mxCell id="112" value="" style="curved=0;endArrow=none;endFill=0;dashed=1;strokeColor=#6c8ebf;" edge="1" parent="1" source="3" target="40">
                    <mxGeometry relative="1" as="geometry"/>
                </mxCell>
                <mxCell id="113" value="" style="curved=0;endArrow=none;endFill=0;dashed=1;strokeColor=#6c8ebf;" edge="1" parent="1" source="3" target="41">
                    <mxGeometry relative="1" as="geometry"/>
                </mxCell>
                <mxCell id="114" value="" style="curved=0;endArrow=none;endFill=0;dashed=1;strokeColor=#6c8ebf;" edge="1" parent="1" source="3" target="42">
                    <mxGeometry relative="1" as="geometry"/>
                </mxCell>
                <mxCell id="115" value="" style="curved=0;endArrow=none;endFill=0;dashed=1;strokeColor=#6c8ebf;" edge="1" parent="1" source="3" target="43">
                    <mxGeometry relative="1" as="geometry"/>
                </mxCell>
                <mxCell id="116" value="" style="curved=0;endArrow=none;endFill=0;dashed=1;strokeColor=#6c8ebf;" edge="1" parent="1" source="3" target="44">
                    <mxGeometry relative="1" as="geometry"/>
                </mxCell>
                <mxCell id="117" value="" style="curved=0;endArrow=none;endFill=0;dashed=1;strokeColor=#6c8ebf;" edge="1" parent="1" source="3" target="45">
                    <mxGeometry relative="1" as="geometry"/>
                </mxCell>
                <mxCell id="118" value="" style="curved=0;endArrow=none;endFill=0;dashed=1;strokeColor=#6c8ebf;" edge="1" parent="1" source="3" target="46">
                    <mxGeometry relative="1" as="geometry"/>
                </mxCell>
                <mxCell id="119" value="" style="curved=0;endArrow=none;endFill=0;dashed=1;strokeColor=#6c8ebf;" edge="1" parent="1" source="3" target="47">
                    <mxGeometry relative="1" as="geometry"/>
                </mxCell>
                <mxCell id="120" value="" style="curved=0;endArrow=none;endFill=0;dashed=1;strokeColor=#6c8ebf;" edge="1" parent="1" source="3" target="48">
                    <mxGeometry relative="1" as="geometry"/>
                </mxCell>
                <mxCell id="121" value="" style="curved=0;endArrow=none;endFill=0;dashed=1;strokeColor=#6c8ebf;" edge="1" parent="1" source="3" target="49">
                    <mxGeometry relative="1" as="geometry"/>
                </mxCell>
                <mxCell id="122" value="" style="curved=0;endArrow=none;endFill=0;dashed=1;strokeColor=#6c8ebf;" edge="1" parent="1" source="3" target="50">
                    <mxGeometry relative="1" as="geometry"/>
                </mxCell>
                <mxCell id="123" value="" style="curved=0;endArrow=none;endFill=0;dashed=1;strokeColor=#6c8ebf;" edge="1" parent="1" source="3" target="51">
                    <mxGeometry relative="1" as="geometry"/>
                </mxCell>
                <mxCell id="124" value="" style="curved=0;endArrow=none;endFill=0;dashed=1;strokeColor=#6c8ebf;" edge="1" parent="1" source="3" target="52">
                    <mxGeometry relative="1" as="geometry"/>
                </mxCell>
                <mxCell id="125" value="" style="curved=0;endArrow=none;endFill=0;dashed=1;strokeColor=#6c8ebf;" edge="1" parent="1" source="3" target="53">
                    <mxGeometry relative="1" as="geometry"/>
                </mxCell>
                <mxCell id="126" value="" style="curved=0;endArrow=none;endFill=0;dashed=1;strokeColor=#6c8ebf;" edge="1" parent="1" source="3" target="54">
                    <mxGeometry relative="1" as="geometry"/>
                </mxCell>
                <mxCell id="127" value="" style="curved=0;endArrow=none;endFill=0;dashed=1;strokeColor=#6c8ebf;" edge="1" parent="1" source="3" target="55">
                    <mxGeometry relative="1" as="geometry"/>
                </mxCell>
                <mxCell id="128" value="" style="curved=0;endArrow=none;endFill=0;dashed=1;strokeColor=#6c8ebf;" edge="1" parent="1" source="3" target="56">
                    <mxGeometry relative="1" as="geometry"/>
                </mxCell>
                <mxCell id="129" value="" style="curved=0;endArrow=none;endFill=0;dashed=1;strokeColor=#6c8ebf;" edge="1" parent="1" source="3" target="57">
                    <mxGeometry relative="1" as="geometry"/>
                </mxCell>
                <mxCell id="130" value="" style="curved=0;endArrow=none;endFill=0;dashed=1;strokeColor=#6c8ebf;" edge="1" parent="1" source="3" target="58">
                    <mxGeometry relative="1" as="geometry"/>
                </mxCell>
                <mxCell id="131" value="" style="curved=0;endArrow=none;endFill=0;dashed=1;strokeColor=#6c8ebf;" edge="1" parent="1" source="3" target="59">
                    <mxGeometry relative="1" as="geometry"/>
                </mxCell>
                <mxCell id="132" value="" style="curved=0;endArrow=none;endFill=0;dashed=1;strokeColor=#6c8ebf;" edge="1" parent="1" source="3" target="60">
                    <mxGeometry relative="1" as="geometry"/>
                </mxCell>
                <mxCell id="133" value="" style="curved=0;endArrow=none;endFill=0;dashed=1;strokeColor=#6c8ebf;" edge="1" parent="1" source="3" target="61">
                    <mxGeometry relative="1" as="geometry"/>
                </mxCell>
                <mxCell id="134" value="" style="curved=0;endArrow=none;endFill=0;dashed=1;strokeColor=#6c8ebf;" edge="1" parent="1" source="3" target="62">
                    <mxGeometry relative="1" as="geometry"/>
                </mxCell>
                <mxCell id="135" value="" style="curved=0;endArrow=none;endFill=0;dashed=1;strokeColor=#6c8ebf;" edge="1" parent="1" source="3" target="63">
                    <mxGeometry relative="1" as="geometry"/>
                </mxCell>
                <mxCell id="136" value="" style="curved=0;endArrow=none;endFill=0;dashed=1;strokeColor=#6c8ebf;" edge="1" parent="1" source="3" target="64">
                    <mxGeometry relative="1" as="geometry"/>
                </mxCell>
                <mxCell id="137" value="" style="curved=0;endArrow=none;endFill=0;dashed=1;strokeColor=#6c8ebf;" edge="1" parent="1" source="3" target="65">
                    <mxGeometry relative="1" as="geometry"/>
                </mxCell>
                <mxCell id="138" value="" style="curved=0;endArrow=none;endFill=0;dashed=1;strokeColor=#6c8ebf;" edge="1" parent="1" source="3" target="66">
                    <mxGeometry relative="1" as="geometry"/>
                </mxCell>
                <mxCell id="139" value="" style="curved=0;endArrow=none;endFill=0;dashed=1;strokeColor=#6c8ebf;" edge="1" parent="1" source="3" target="67">
                    <mxGeometry relative="1" as="geometry"/>
                </mxCell>
                <mxCell id="140" value="" style="curved=0;endArrow=none;endFill=0;dashed=1;strokeColor=#6c8ebf;" edge="1" parent="1" source="3" target="68">
                    <mxGeometry relative="1" as="geometry"/>
                </mxCell>
                <mxCell id="141" value="" style="curved=0;endArrow=none;endFill=0;dashed=1;strokeColor=#6c8ebf;" edge="1" parent="1" source="3" target="69">
                    <mxGeometry relative="1" as="geometry"/>
                </mxCell>
                <mxCell id="142" value="" style="curved=0;endArrow=none;endFill=0;dashed=1;strokeColor=#6c8ebf;" edge="1" parent="1" source="3" target="70">
                    <mxGeometry relative="1" as="geometry"/>
                </mxCell>
                <mxCell id="143" value="" style="curved=0;endArrow=none;endFill=0;dashed=1;strokeColor=#6c8ebf;" edge="1" parent="1" source="3" target="71">
                    <mxGeometry relative="1" as="geometry"/>
                </mxCell>
                <mxCell id="144" value="" style="curved=0;endArrow=none;endFill=0;dashed=1;strokeColor=#6c8ebf;" edge="1" parent="1" source="3" target="72">
                    <mxGeometry relative="1" as="geometry"/>
                </mxCell>
                <mxCell id="145" value="" style="curved=0;endArrow=none;endFill=0;dashed=1;strokeColor=#6c8ebf;" edge="1" parent="1" source="3" target="73">
                    <mxGeometry relative="1" as="geometry"/>
                </mxCell>
                <mxCell id="146" value="" style="curved=0;endArrow=none;endFill=0;dashed=1;strokeColor=#6c8ebf;" edge="1" parent="1" source="3" target="74">
                    <mxGeometry relative="1" as="geometry"/>
                </mxCell>
                <mxCell id="147" value="" style="curved=0;endArrow=none;endFill=0;dashed=1;strokeColor=#6c8ebf;" edge="1" parent="1" source="3" target="75">
                    <mxGeometry relative="1" as="geometry"/>
                </mxCell>
            </root>
        </mxGraphModel>
    </diagram>
</mxfile>